<?xml version="1.0" encoding="utf-8"?>
<!-- Generator: Adobe Illustrator 25.3.1, SVG Export Plug-In . SVG Version: 6.00 Build 0)  -->
<svg version="1.1" id="Klett" xmlns="http://www.w3.org/2000/svg" xmlns:xlink="http://www.w3.org/1999/xlink" x="0px" y="0px"
	 viewBox="0 0 141.857 70.866" enable-background="new 0 0 141.857 70.866" xml:space="preserve">
<g>
	<polygon fill="#FFFFFF" points="0.25,0.182 70.866,0.182 71.116,0.125 141.732,0.125 141.732,70.741 71.116,70.741 70.866,70.685 
		0.25,70.685 	"/>
	<polyline fill="#E43022" points="70.991,0 141.857,0 141.857,70.866 70.991,70.866 	"/>
	<polygon fill="#003366" points="0.125,0.057 70.991,0.057 70.991,0.622 0.69,0.622 0.69,70.245 70.991,70.245 70.991,70.81 
		0.125,70.81 	"/>
	<g>
		<path fill="#FFFFFF" d="M137.635,38.958h-4.588l-0.001,8.843c0,1.994,0.493,2.62,1.745,2.62c0.977,0,1.699-0.283,2.656-0.665
			v2.612c-1.371,0.635-2.273,0.969-3.725,0.969c-2.768,0-3.85-1.628-3.85-5.16v-9.219h-6.75v8.843c0,1.994,0.492,2.62,1.745,2.62
			c0.965,0,1.658-0.317,2.53-0.665v2.675c-1.457,0.675-2.156,0.907-3.662,0.907c-2.704,0-3.85-1.627-3.85-5.16v-9.219h-2.829v-2.465
			h2.83l0.062-3.94l3.237-0.593l-0.063,4.533h6.75l0.063-3.94l3.238-0.594l-0.126,4.533h4.586V38.958z"/>
		<polygon fill="#FFFFFF" points="98.064,53.15 94.764,53.15 94.764,29.417 98.064,28.824 		"/>
		<path fill="#FFFFFF" d="M92.624,53.15h-4.421l-8.205-10.897c-0.066-0.09-0.166-0.256-0.197-0.333
			c0.019,0.083,0.032,0.287,0.032,0.477V53.15h-3.425V29.78h3.425v10.253c0,0.099-0.01,0.263-0.021,0.35
			c0.028-0.086,0.064-0.245,0.187-0.397l8.079-10.206h4.169v0.141h-0.092l-8.968,10.981l9.345,12.053h0.092V53.15z"/>
		<path fill="#FFFFFF" d="M115.666,45.496h-10.867c0.12,1.254,0.185,1.738,0.489,2.461c0.681,1.618,2.028,2.464,4.076,2.464
			c0.486,0,0.928-0.036,1.473-0.131c1.264-0.222,2.007-0.642,3.221-1.349l0.934,2.619c-0.424,0.267-1.273,0.725-1.823,0.978
			c-1.258,0.581-2.66,0.925-4.119,0.925c-4.832,0-7.685-3.561-7.685-8.861c0-5.301,2.727-8.674,7.559-8.674
			c2.272,0,3.799,0.766,4.955,2.137c1.636,1.94,1.787,4.665,1.788,6.664V45.496z M112.298,42.955
			c-0.124-1.69-0.239-2.302-0.796-3.141c-0.462-0.695-1.352-1.407-2.828-1.407c-0.522,0-1.171,0.135-1.766,0.479
			c-0.664,0.384-1.266,1.02-1.651,1.874c-0.263,0.584-0.385,1.341-0.459,2.195L112.298,42.955z"/>
	</g>
	<g>
		<path fill="#003366" d="M39.819,39.363c0-1.383,0.063-3.019,0.063-4.905c0-7.546-0.393-17.858-1.274-21.065
			c-0.314-1.069-0.629-1.32-1.069-1.635c-0.377,0.88-0.503,4.402-0.503,9.432c0,11.759,0.89,32.021,1.833,42.207l-2.461,3.003
			c-1.383-10.5-3.899-35.275-3.899-45.147c0-6.477,7.357-16.223,7.357-16.223s1.399,0.44,2.72,2.39
			c0.692,1.006,1.886,4.464,1.886,13.331c0,7.616-0.983,13.807-1.211,15.14c-0.03,0.175-0.076,0.342-0.076,0.342
			c0.055-0.116,0.139-0.227,0.246-0.365c4.103-5.336,10.596-6.125,13.932-6.125c0,0,0.879,2.075,0.879,6.414
			c0,9.172-6.658,12.921-11.087,13.652c-0.1,0.019-0.104,0.003-0.182-0.034c0.069,0.047,0.082,0.064,0.112,0.141
			c1.732,4.708,7.51,6.991,7.51,6.991l-5.219,5.345c-8.237-3.898-9.62-13.079-9.62-13.079s0.44,0.125,1.257,0.125
			c2.327,0,10.564-1.509,10.564-11.947c0-1.761-0.44-3.207-0.88-3.773c-6.037,0.251-8.803,6.036-9.118,9.558
			C40.071,42.758,39.819,40.621,39.819,39.363L39.819,39.363z"/>
		<path fill="#003366" d="M16.571,56.906c0,0,12.324-1.76,12.324-13.456c0-9.998-8.552-9.872-8.552-9.872s-0.817,0.692-0.817,4.402
			c0,8.552,5.47,10.501,6.728,10.689c-0.503,0.503-1.258,0.817-2.578,0.817c-4.087,0-10.878-4.687-10.878-13.33
			c0-4.716,0.88-6.414,0.88-6.414c3.018,0.063,18.99,0.944,18.99,18.172c0,11.284-10.941,14.148-10.941,14.148L16.571,56.906z"/>
	</g>
</g>
</svg>
